# Blender v2.78 (sub 0) OBJ File: 'frame.blend'
# www.blender.org
mtllib frame.mtl
o Cube.001
v -1.568957 0.637455 0.093177
v -1.568957 0.637455 -0.022645
v -1.694326 0.637455 0.093177
v -1.694326 0.637455 -0.022645
v -1.640102 0.581847 0.093177
v -1.640102 0.579731 -0.022645
v -0.238228 0.581847 0.093177
v -0.238228 0.637455 0.093177
v -0.238228 0.637455 -0.022645
v -0.238228 0.579731 -0.022645
v -1.640102 -1.113082 -0.022645
v -1.694326 -1.114437 -0.022645
v -1.694326 -1.113748 0.093177
v -1.640102 -1.115221 0.093177
v 1.089431 0.637455 0.093177
v 1.089431 0.637455 -0.022645
v 1.214800 0.637455 0.093177
v 1.214800 0.637455 -0.022645
v 1.160576 0.581847 0.093177
v 1.160576 0.579731 -0.022645
v -0.241298 0.581847 0.093177
v -0.241298 0.637455 0.093177
v -0.241298 0.637455 -0.022645
v -0.241298 0.579731 -0.022645
v 1.160576 -1.113082 -0.022645
v 1.214800 -1.114437 -0.022645
v 1.214800 -1.113748 0.093177
v 1.160576 -1.115221 0.093177
v -1.568957 -2.837803 0.093177
v -1.568957 -2.837803 -0.022645
v -1.694326 -2.837803 0.093177
v -1.694326 -2.837803 -0.022645
v -1.640102 -2.782196 0.093177
v -1.640102 -2.780080 -0.022645
v -0.238228 -2.782196 0.093177
v -0.238228 -2.837803 0.093177
v -0.238228 -2.837803 -0.022645
v -0.238228 -2.780080 -0.022645
v -1.640102 -1.087267 -0.022645
v -1.694326 -1.085912 -0.022645
v -1.694326 -1.086601 0.093177
v -1.640102 -1.085128 0.093177
v 1.089431 -2.837803 0.093177
v 1.089431 -2.837803 -0.022645
v 1.214800 -2.837803 0.093177
v 1.214800 -2.837803 -0.022645
v 1.160576 -2.782196 0.093177
v 1.160576 -2.780080 -0.022645
v -0.241298 -2.782196 0.093177
v -0.241298 -2.837803 0.093177
v -0.241298 -2.837803 -0.022645
v -0.241298 -2.780080 -0.022645
v 1.160576 -1.087267 -0.022645
v 1.214800 -1.085912 -0.022645
v 1.214800 -1.086601 0.093177
v 1.160576 -1.085128 0.093177
vn 1.0000 0.0000 0.0000
vn 0.0000 1.0000 0.0000
vn 0.0000 0.0000 1.0000
vn 0.0000 -0.9998 0.0183
vn 0.0000 0.0000 -1.0000
vn -1.0000 0.0000 0.0000
vn 0.0000 -1.0000 0.0000
vn 0.0000 0.9998 0.0183
usemtl None
s off
f 14//1 11//1 6//1 5//1
f 4//2 3//2 1//2 2//2
f 5//3 7//3 8//3 1//3
f 6//4 10//4 7//4 5//4
f 1//2 8//2 9//2 2//2
f 2//5 9//5 10//5 6//5
f 11//5 12//5 4//5 2//5 6//5
f 12//6 13//6 3//6 4//6
f 13//3 14//3 5//3 1//3 3//3
f 28//6 19//6 20//6 25//6
f 18//2 16//2 15//2 17//2
f 19//3 15//3 22//3 21//3
f 20//4 19//4 21//4 24//4
f 15//2 16//2 23//2 22//2
f 16//5 20//5 24//5 23//5
f 25//5 20//5 16//5 18//5 26//5
f 26//1 18//1 17//1 27//1
f 27//3 17//3 15//3 19//3 28//3
f 42//1 33//1 34//1 39//1
f 32//7 30//7 29//7 31//7
f 33//3 29//3 36//3 35//3
f 34//8 33//8 35//8 38//8
f 29//7 30//7 37//7 36//7
f 30//5 34//5 38//5 37//5
f 39//5 34//5 30//5 32//5 40//5
f 40//6 32//6 31//6 41//6
f 41//3 31//3 29//3 33//3 42//3
f 56//6 53//6 48//6 47//6
f 46//7 45//7 43//7 44//7
f 47//3 49//3 50//3 43//3
f 48//8 52//8 49//8 47//8
f 43//7 50//7 51//7 44//7
f 44//5 51//5 52//5 48//5
f 53//5 54//5 46//5 44//5 48//5
f 54//1 55//1 45//1 46//1
f 55//3 56//3 47//3 43//3 45//3
